<?xml version="1.0" encoding="UTF-8" standalone="no" ?>
<!DOCTYPE svg PUBLIC "-//W3C//DTD SVG 1.1//EN" "http://www.w3.org/Graphics/SVG/1.1/DTD/svg11.dtd">
<svg xmlns="http://www.w3.org/2000/svg" xmlns:xlink="http://www.w3.org/1999/xlink" version="1.1" width="1024" height="1024" viewBox="0 0 1024 1024" xml:space="preserve">
<desc>Created with Fabric.js 2.4.6</desc>
<defs>
</defs>
<rect x="0" y="0" width="100%" height="100%" fill="rgb(255,255,255)"></rect>
<g transform="matrix(1.57 0 0 1 512 512)" id="background-logo"  >
<rect style="stroke: none; stroke-width: 1; stroke-dasharray: none; stroke-linecap: butt; stroke-dashoffset: 0; stroke-linejoin: miter; stroke-miterlimit: 4; fill: rgb(255,255,255); fill-rule: nonzero; opacity: 1;"  x="-325" y="-512" rx="0" ry="0" width="650" height="1024" />
</g>
<g transform="matrix(1.57 0 0 1.57 512 447.1)" style="" id="logo-logo"  >
	<g transform="matrix(1.2 0 0 -1.2 131.12 20.08)" id="logo-logo"  >
<path style="stroke: none; stroke-width: 1; stroke-dasharray: none; stroke-linecap: butt; stroke-dashoffset: 0; stroke-linejoin: miter; stroke-miterlimit: 4; fill: rgb(0,0,0); fill-rule: nonzero; opacity: 1;"  transform=" translate(-7.68, -69.77)" d="m 0 0 c -2.379 2.124 -4.799 4.711 -7.064 7.312 c 13.639 14.66 20.484 37.126 18.114 63.12 c -2.737 30.015 -13.95 46.933 -29.485 61.586 c 2.11 2.532 4.669 5.261 7.27 7.526 C 9.206 126.581 30.34 108.695 33.47 74.347 C 36.391 42.319 19.7 14.9 0 0" stroke-linecap="round" />
</g>
	<g transform="matrix(1.2 0 0 -1.2 80.09 17.44)" id="logo-logo"  >
<path style="stroke: none; stroke-width: 1; stroke-dasharray: none; stroke-linecap: butt; stroke-dashoffset: 0; stroke-linejoin: miter; stroke-miterlimit: 4; fill: rgb(0,0,0); fill-rule: nonzero; opacity: 1;"  transform=" translate(-17.23, -69.98)" d="m 0 0 c -2.154 2.351 -4.301 5.168 -6.297 7.982 c 15.041 13.221 24.1 34.888 24.344 60.988 c 0.283 30.139 -9.182 48.095 -23.17 64.229 c 2.352 2.309 5.174 4.768 7.988 6.761 C 21.836 125.022 41.07 105.11 40.748 70.621 C 40.445 38.463 21.096 12.852 0 0" stroke-linecap="round" />
</g>
	<g transform="matrix(1.2 0 0 -1.2 -76.28 16.23)" id="logo-logo"  >
<path style="stroke: none; stroke-width: 1; stroke-dasharray: none; stroke-linecap: butt; stroke-dashoffset: 0; stroke-linejoin: miter; stroke-miterlimit: 4; fill: rgb(0,0,0); fill-rule: nonzero; opacity: 1;"  transform=" translate(16.54, 69.91)" d="m 0 0 c 2.308 -2.353 4.923 -5.173 7.229 -7.836 c -14.583 -14.157 -24.559 -34.106 -24.831 -63.158 c -0.26 -27.808 7.799 -46.528 22.88 -62.051 c -2.354 -2.463 -5.017 -4.77 -7.366 -6.767 c -19.915 13.548 -38.513 35.164 -38.208 67.633 C -39.98 -38.467 -20.333 -14.414 0 0" stroke-linecap="round" />
</g>
	<g transform="matrix(1.2 0 0 -1.2 -128.36 18.13)" id="logo-logo"  >
<path style="stroke: none; stroke-width: 1; stroke-dasharray: none; stroke-linecap: butt; stroke-dashoffset: 0; stroke-linejoin: miter; stroke-miterlimit: 4; fill: rgb(0,0,0); fill-rule: nonzero; opacity: 1;"  transform=" translate(22.34, 69.09)" d="m 0 0 c 1.961 -2.648 4.161 -5.804 6.077 -8.759 c -16.399 -12.008 -29.034 -30.388 -33.316 -59.123 c -4.1 -27.506 1.297 -47.159 14.089 -64.616 c -2.671 -2.115 -5.627 -4.031 -8.229 -5.685 c -17.854 16.17 -33.288 40.146 -28.501 72.262 C -44.911 -32.576 -22.129 -11.468 0 0" stroke-linecap="round" />
</g>
	<g transform="matrix(1.2 0 0 -1.2 -23.03 -24.33)" id="logo-logo"  >
<path style="stroke: none; stroke-width: 1; stroke-dasharray: none; stroke-linecap: butt; stroke-dashoffset: 0; stroke-linejoin: miter; stroke-miterlimit: 4; fill: rgb(0,0,0); fill-rule: nonzero; opacity: 1;"  transform=" translate(5.81, 23.2)" d="m 0 0 c 5.416 -1.528 7.505 -5.771 6.408 -9.663 c -2.102 -7.445 -9.686 -7.131 -11.398 -7.378 c -1.329 -0.173 -3.254 -1.821 -3.875 -4.022 c -2.34 -8.29 2.663 -17.739 5.262 -22.126 c 1.067 -1.396 0.972 -1.735 0.732 -2.582 c -0.238 -0.845 -0.891 -1.208 -2.073 -0.875 c -1.355 0.382 -1.96 1.466 -2.663 2.212 c -2.519 2.722 -14.183 17.704 -9.694 33.608 C -14.627 -1.352 -5.242 1.479 0 0" stroke-linecap="round" />
</g>
	<g transform="matrix(1.2 0 0 -1.2 28.94 -24.33)" id="logo-logo"  >
<path style="stroke: none; stroke-width: 1; stroke-dasharray: none; stroke-linecap: butt; stroke-dashoffset: 0; stroke-linejoin: miter; stroke-miterlimit: 4; fill: rgb(0,0,0); fill-rule: nonzero; opacity: 1;"  transform=" translate(11.49, 12.37)" d="m 0 0 c 4.488 -15.904 -7.175 -30.886 -9.694 -33.607 c -0.703 -0.747 -1.309 -1.831 -2.663 -2.213 c -1.183 -0.333 -1.835 0.03 -2.074 0.876 c -0.239 0.846 -0.334 1.185 0.733 2.581 c 2.599 4.387 7.601 13.836 5.261 22.127 c -0.621 2.2 -2.544 3.848 -3.875 4.022 c -1.71 0.246 -9.295 -0.068 -11.397 7.378 c -1.098 3.891 0.992 8.134 6.407 9.662 C -12.06 12.306 -2.674 9.475 0 0" stroke-linecap="round" />
</g>
	<g transform="matrix(1.2 0 0 -1.2 -23.03 -90.82)" id="logo-logo"  >
<path style="stroke: none; stroke-width: 1; stroke-dasharray: none; stroke-linecap: butt; stroke-dashoffset: 0; stroke-linejoin: miter; stroke-miterlimit: 4; fill: rgb(0,0,0); fill-rule: nonzero; opacity: 1;"  transform=" translate(10.77, 0)" d="m 0 0 c 0 5.95 -4.823 10.773 -10.772 10.773 c -5.95 0 -10.773 -4.823 -10.773 -10.773 c 0 -5.949 4.823 -10.772 10.773 -10.772 C -4.823 -10.772 0 -5.949 0 0" stroke-linecap="round" />
</g>
	<g transform="matrix(1.2 0 0 -1.2 28.94 -90.82)" id="logo-logo"  >
<path style="stroke: none; stroke-width: 1; stroke-dasharray: none; stroke-linecap: butt; stroke-dashoffset: 0; stroke-linejoin: miter; stroke-miterlimit: 4; fill: rgb(0,0,0); fill-rule: nonzero; opacity: 1;"  transform=" translate(10.77, 0)" d="m 0 0 c 0 5.95 -4.823 10.773 -10.772 10.773 c -5.95 0 -10.774 -4.823 -10.774 -10.773 c 0 -5.949 4.824 -10.772 10.774 -10.772 C -4.823 -10.772 0 -5.949 0 0" stroke-linecap="round" />
</g>
</g>
<g transform="matrix(1.57 0 0 1.57 512 690.58)"  >
<path style="stroke: none; stroke-width: 1; stroke-dasharray: none; stroke-linecap: butt; stroke-dashoffset: 0; stroke-linejoin: miter; stroke-miterlimit: 4; fill: rgb(19,19,30); fill-rule: nonzero; opacity: ;"  transform=" translate(-108.33, 18.83)" d="M 11.5 0 L 6.12 0 L 6.12 -45.77 Q 9.72 -46.48 12.94 -46.8 Q 16.15 -47.13 19.75 -47.13 L 19.75 -47.13 Q 29.81 -47.13 34.88 -43.27 Q 39.96 -39.41 39.96 -31.28 L 39.96 -31.28 Q 39.96 -23.38 34.82 -19.33 Q 29.69 -15.29 18.89 -15.29 L 18.89 -15.29 Q 15.72 -15.29 11.5 -15.63 L 11.5 -15.63 L 11.5 0 Z M 11.5 -42.24 L 11.5 -19.9 Q 15.1 -19.44 18.92 -19.44 L 18.92 -19.44 Q 24.55 -19.44 28.01 -20.73 Q 31.47 -22.03 33.05 -24.62 Q 34.64 -27.22 34.64 -31.25 L 34.64 -31.25 Q 34.64 -37.31 31.05 -40.14 Q 27.47 -42.97 20.09 -42.97 L 20.09 -42.97 Q 15.44 -42.97 11.5 -42.24 L 11.5 -42.24 Z M 58.75 0 L 43.87 -34.18 L 49.53 -34.18 L 62.17 -4.21 L 75 -34.18 L 80.26 -34.18 L 59.28 13.87 L 54.02 13.87 L 60.08 0 L 58.75 0 Z M 119.97 0 L 87.15 0 L 87.15 -46.63 L 119.63 -46.63 L 119.63 -42.27 L 92.5 -42.27 L 92.5 -26.09 L 116.43 -26.09 L 116.43 -21.78 L 92.5 -21.78 L 92.5 -4.34 L 119.97 -4.34 L 119.97 0 Z M 128.46 0 L 122.37 0 L 136.61 -17.23 L 122.68 -34.18 L 128.89 -34.18 L 139.87 -20.86 L 150.82 -34.18 L 156.85 -34.18 L 142.95 -17.32 L 157.25 0 L 151.04 0 L 139.75 -13.66 L 128.46 0 Z M 165.34 -29.81 L 158.27 -29.81 L 158.27 -34.18 L 165.34 -34.18 L 165.34 -37.87 Q 165.34 -44.57 168.91 -48.05 Q 172.48 -51.53 179.25 -51.53 L 179.25 -51.53 Q 181.96 -51.53 184.45 -51.06 L 184.45 -51.06 L 184.45 -46.7 Q 182.14 -47.16 179.8 -47.16 L 179.8 -47.16 Q 175.06 -47.16 172.85 -45.07 Q 170.64 -42.97 170.64 -38.18 L 170.64 -38.18 L 170.64 -34.18 L 183.25 -34.18 L 183.25 -29.81 L 170.64 -29.81 L 170.64 0 L 165.34 0 L 165.34 -29.81 Z M 187.86 -44.76 L 187.86 -44.76 Q 187.86 -46.27 188.82 -47.11 Q 189.77 -47.96 191.52 -47.96 L 191.52 -47.96 Q 193.28 -47.96 194.23 -47.11 Q 195.18 -46.27 195.18 -44.76 L 195.18 -44.76 Q 195.18 -43.25 194.23 -42.44 Q 193.28 -41.62 191.52 -41.62 L 191.52 -41.62 Q 189.77 -41.62 188.82 -42.44 Q 187.86 -43.25 187.86 -44.76 Z M 194.17 0 L 188.88 0 L 188.88 -34.18 L 194.17 -34.18 L 194.17 0 Z M 210.53 0 L 205.24 0 L 205.24 -50.91 L 210.53 -50.91 L 210.53 0 Z" stroke-linecap="round" />
</g>
<g transform="matrix(1.57 0 0 1.57 512 768.63)"  >
<path style="stroke: none; stroke-width: 1; stroke-dasharray: none; stroke-linecap: butt; stroke-dashoffset: 0; stroke-linejoin: miter; stroke-miterlimit: 4; fill: rgb(63,63,71); fill-rule: nonzero; opacity: ;"  transform=" translate(-160.91, 7.54)" d="M 1.29 -14.43 L 1.29 -14.43 Q 1.29 -17.15 3.19 -18.73 Q 5.1 -20.3 8.25 -20.3 L 8.25 -20.3 Q 11.26 -20.3 13.89 -19.09 L 13.89 -19.09 L 13.89 -14.58 L 10.83 -14.37 L 10.83 -16.11 Q 10.83 -16.57 10.71 -16.77 Q 10.59 -16.96 10.2 -17.09 L 10.2 -17.09 Q 9.39 -17.34 8.25 -17.34 L 8.25 -17.34 Q 6.83 -17.34 5.96 -16.71 Q 5.1 -16.08 5.1 -14.77 L 5.1 -14.77 Q 5.1 -14.43 5.16 -14.14 Q 5.23 -13.84 5.41 -13.59 Q 5.6 -13.34 5.76 -13.16 Q 5.92 -12.98 6.26 -12.79 Q 6.61 -12.6 6.83 -12.49 Q 7.05 -12.38 7.53 -12.21 Q 8.01 -12.04 8.26 -11.96 Q 8.51 -11.88 9.1 -11.7 L 9.1 -11.7 Q 10.06 -11.4 10.74 -11.12 Q 11.43 -10.84 12.23 -10.34 Q 13.04 -9.84 13.54 -9.25 Q 14.03 -8.66 14.37 -7.75 Q 14.71 -6.84 14.71 -5.73 L 14.71 -5.73 Q 14.71 -2.84 12.68 -1.22 Q 10.65 0.4 7.44 0.4 L 7.44 0.4 Q 4.03 0.4 1.38 -0.83 L 1.38 -0.83 L 1.38 -5.58 L 4.44 -5.79 L 4.44 -3.96 Q 4.44 -3.5 4.56 -3.3 Q 4.67 -3.11 5.07 -2.97 L 5.07 -2.97 Q 5.98 -2.7 7.24 -2.7 L 7.24 -2.7 Q 10.83 -2.7 10.83 -5.58 L 10.83 -5.58 Q 10.83 -6.14 10.61 -6.57 Q 10.4 -7 10.1 -7.29 Q 9.8 -7.57 9.24 -7.83 Q 8.69 -8.09 8.23 -8.23 Q 7.78 -8.38 7.02 -8.58 L 7.02 -8.58 Q 6.18 -8.8 5.55 -9.03 Q 4.92 -9.26 4.22 -9.59 Q 3.52 -9.93 3.02 -10.37 Q 2.53 -10.81 2.12 -11.38 Q 1.71 -11.95 1.5 -12.72 Q 1.29 -13.49 1.29 -14.43 Z M 18.06 -12.57 L 15.94 -12.57 L 16.23 -14.77 Q 16.98 -14.82 17.55 -15.12 Q 18.12 -15.42 18.52 -15.97 Q 18.93 -16.51 19.17 -17 Q 19.41 -17.49 19.69 -18.27 L 19.69 -18.27 L 21.64 -18.27 L 21.64 -15.09 L 25.62 -15.09 L 25.33 -12.57 L 21.64 -12.57 L 21.64 -4.67 Q 21.64 -3.37 22.12 -2.84 Q 22.6 -2.31 23.58 -2.31 L 23.58 -2.31 Q 24.58 -2.31 25.62 -2.94 L 25.62 -2.94 L 26.53 -0.63 Q 25.85 -0.16 24.81 0.13 Q 23.77 0.42 22.72 0.42 L 22.72 0.42 Q 21.39 0.42 20.46 0.08 Q 19.53 -0.26 19.06 -0.69 Q 18.6 -1.11 18.36 -1.91 Q 18.12 -2.71 18.09 -3.19 Q 18.06 -3.66 18.06 -4.54 L 18.06 -4.54 L 18.06 -4.56 L 18.06 -12.57 Z M 28.77 -12.57 L 27.51 -12.66 L 27.51 -15.09 L 32.58 -15.09 L 32.58 -12.85 Q 33.12 -14.02 34.26 -14.78 Q 35.41 -15.54 36.84 -15.54 L 36.84 -15.54 Q 38.36 -15.54 39.73 -14.88 L 39.73 -14.88 L 39.73 -10.42 L 36.93 -10.2 L 36.93 -11.59 Q 36.93 -12.19 36.64 -12.33 L 36.64 -12.33 Q 36.3 -12.48 35.83 -12.48 L 35.83 -12.48 Q 34.61 -12.48 33.85 -11.62 Q 33.09 -10.77 33.09 -9.45 L 33.09 -9.45 L 33.09 -2.49 L 35.7 -2.37 L 35.7 0 L 27.67 0 L 27.67 -2.29 L 28.65 -2.37 Q 29.12 -2.42 29.33 -2.62 Q 29.53 -2.83 29.53 -3.35 L 29.53 -3.35 L 29.53 -11.67 Q 29.53 -12.16 29.36 -12.35 Q 29.19 -12.54 28.77 -12.57 L 28.77 -12.57 Z M 41.65 -7.21 L 41.65 -7.21 Q 41.65 -8.89 42.12 -10.39 Q 42.6 -11.88 43.5 -13.04 Q 44.4 -14.19 45.83 -14.87 Q 47.27 -15.54 49.06 -15.54 L 49.06 -15.54 Q 51.3 -15.54 52.62 -14.44 Q 53.94 -13.34 53.94 -11.37 L 53.94 -11.37 Q 53.94 -10.42 53.64 -9.62 Q 53.35 -8.83 52.87 -8.28 Q 52.38 -7.73 51.69 -7.31 Q 50.99 -6.88 50.25 -6.64 Q 49.51 -6.39 48.63 -6.23 Q 47.75 -6.06 46.99 -6.01 Q 46.23 -5.95 45.4 -5.95 L 45.4 -5.95 Q 45.5 -4.37 46.39 -3.38 Q 47.29 -2.4 49.09 -2.4 L 49.09 -2.4 Q 51.02 -2.4 52.87 -3.72 L 52.87 -3.72 L 54.01 -1.29 Q 53.41 -0.76 51.98 -0.18 Q 50.55 0.4 48.72 0.4 L 48.72 0.4 Q 46.85 0.4 45.47 -0.15 Q 44.09 -0.7 43.26 -1.74 Q 42.44 -2.77 42.04 -4.13 Q 41.65 -5.49 41.65 -7.21 Z M 45.28 -8.47 L 45.28 -8.47 Q 46.23 -8.48 47.07 -8.61 Q 47.92 -8.73 48.77 -9.02 Q 49.63 -9.32 50.13 -9.9 Q 50.64 -10.49 50.64 -11.31 Q 50.64 -12.13 50.16 -12.56 Q 49.67 -12.99 48.84 -12.99 L 48.84 -12.99 Q 47.7 -12.99 46.88 -12.31 Q 46.07 -11.63 45.7 -10.64 Q 45.32 -9.65 45.28 -8.47 Z M 56.37 -0.54 L 56.37 -0.54 L 56.37 -4.72 L 59.06 -4.92 L 59.06 -3.49 Q 59.06 -3.06 59.21 -2.83 Q 59.36 -2.61 59.77 -2.46 L 59.77 -2.46 Q 60.62 -2.15 61.74 -2.15 L 61.74 -2.15 Q 64.1 -2.15 64.1 -3.98 L 64.1 -3.98 Q 64.1 -4.38 63.96 -4.69 Q 63.82 -5 63.58 -5.2 Q 63.34 -5.41 63 -5.56 Q 62.65 -5.71 62.24 -5.84 Q 61.83 -5.96 61.36 -6.08 L 61.36 -6.08 Q 61.23 -6.11 61.17 -6.12 L 61.17 -6.12 Q 60.59 -6.27 60.21 -6.39 Q 59.82 -6.5 59.28 -6.71 Q 58.74 -6.91 58.39 -7.14 Q 58.04 -7.37 57.65 -7.72 Q 57.26 -8.07 57.03 -8.49 Q 56.81 -8.91 56.66 -9.49 Q 56.51 -10.08 56.51 -10.77 L 56.51 -10.77 Q 56.51 -11.91 56.98 -12.82 Q 57.44 -13.74 58.23 -14.33 Q 59.03 -14.91 60.08 -15.23 Q 61.13 -15.54 62.31 -15.54 L 62.31 -15.54 Q 64.83 -15.54 67.29 -14.34 L 67.29 -14.34 L 67.29 -10.74 L 64.58 -10.53 L 64.58 -11.79 Q 64.58 -12.23 64.45 -12.44 Q 64.31 -12.66 63.9 -12.8 L 63.9 -12.8 Q 63.12 -13.08 62.15 -13.08 L 62.15 -13.08 Q 61.14 -13.08 60.53 -12.62 Q 59.91 -12.16 59.91 -11.28 L 59.91 -11.28 Q 59.91 -10.88 60.09 -10.56 Q 60.26 -10.24 60.49 -10.03 Q 60.72 -9.83 61.16 -9.63 Q 61.61 -9.43 61.9 -9.35 Q 62.2 -9.26 62.75 -9.1 L 62.75 -9.1 Q 63.4 -8.91 63.77 -8.8 Q 64.15 -8.69 64.74 -8.45 Q 65.33 -8.22 65.68 -8 Q 66.04 -7.78 66.46 -7.42 Q 66.88 -7.06 67.12 -6.65 Q 67.35 -6.24 67.51 -5.66 Q 67.68 -5.08 67.68 -4.41 L 67.68 -4.41 Q 67.68 -2.15 66.04 -0.88 Q 64.39 0.4 61.89 0.4 L 61.89 0.4 Q 60.37 0.4 58.81 0.15 Q 57.26 -0.09 56.37 -0.54 Z M 69.89 -0.54 L 69.89 -0.54 L 69.89 -4.72 L 72.58 -4.92 L 72.58 -3.49 Q 72.58 -3.06 72.73 -2.83 Q 72.88 -2.61 73.29 -2.46 L 73.29 -2.46 Q 74.14 -2.15 75.26 -2.15 L 75.26 -2.15 Q 77.62 -2.15 77.62 -3.98 L 77.62 -3.98 Q 77.62 -4.38 77.48 -4.69 Q 77.34 -5 77.1 -5.2 Q 76.86 -5.41 76.52 -5.56 Q 76.17 -5.71 75.76 -5.84 Q 75.35 -5.96 74.88 -6.08 L 74.88 -6.08 Q 74.75 -6.11 74.69 -6.12 L 74.69 -6.12 Q 74.11 -6.27 73.73 -6.39 Q 73.34 -6.5 72.8 -6.71 Q 72.26 -6.91 71.91 -7.14 Q 71.56 -7.37 71.17 -7.72 Q 70.78 -8.07 70.55 -8.49 Q 70.33 -8.91 70.18 -9.49 Q 70.03 -10.08 70.03 -10.77 L 70.03 -10.77 Q 70.03 -11.91 70.5 -12.82 Q 70.96 -13.74 71.76 -14.33 Q 72.55 -14.91 73.6 -15.23 Q 74.65 -15.54 75.83 -15.54 L 75.83 -15.54 Q 78.35 -15.54 80.82 -14.34 L 80.82 -14.34 L 80.82 -10.74 L 78.11 -10.53 L 78.11 -11.79 Q 78.11 -12.23 77.97 -12.44 Q 77.83 -12.66 77.42 -12.8 L 77.42 -12.8 Q 76.64 -13.08 75.67 -13.08 L 75.67 -13.08 Q 74.66 -13.08 74.05 -12.62 Q 73.43 -12.16 73.43 -11.28 L 73.43 -11.28 Q 73.43 -10.88 73.61 -10.56 Q 73.78 -10.24 74.01 -10.03 Q 74.24 -9.83 74.69 -9.63 Q 75.13 -9.43 75.42 -9.35 Q 75.72 -9.26 76.27 -9.1 L 76.27 -9.1 Q 76.92 -8.91 77.29 -8.8 Q 77.67 -8.69 78.26 -8.45 Q 78.85 -8.22 79.2 -8 Q 79.56 -7.78 79.98 -7.42 Q 80.41 -7.06 80.64 -6.65 Q 80.87 -6.24 81.04 -5.66 Q 81.2 -5.08 81.2 -4.41 L 81.2 -4.41 Q 81.2 -2.15 79.56 -0.88 Q 77.92 0.4 75.41 0.4 L 75.41 0.4 Q 73.89 0.4 72.33 0.15 Q 70.78 -0.09 69.89 -0.54 Z M 91.6 -14.63 L 88.54 -14.85 L 88.54 -19.95 L 104.22 -19.95 L 104.22 -14.85 L 101.16 -14.63 L 101.16 -16.05 Q 101.16 -16.55 101.01 -16.77 Q 100.85 -16.98 100.3 -16.98 L 100.3 -16.98 L 98.25 -16.98 L 98.25 -2.64 L 100.62 -2.55 L 100.62 0 L 92.17 0 L 92.17 -2.43 L 93.75 -2.52 Q 94.2 -2.56 94.41 -2.75 Q 94.61 -2.93 94.61 -3.35 L 94.61 -3.35 L 94.61 -16.98 L 92.29 -16.98 Q 91.86 -16.98 91.73 -16.74 Q 91.6 -16.51 91.6 -16.05 L 91.6 -16.05 L 91.6 -14.63 Z M 105.78 -7.21 L 105.78 -7.21 Q 105.78 -8.89 106.25 -10.39 Q 106.73 -11.88 107.63 -13.04 Q 108.53 -14.19 109.97 -14.87 Q 111.4 -15.54 113.19 -15.54 L 113.19 -15.54 Q 115.43 -15.54 116.75 -14.44 Q 118.07 -13.34 118.07 -11.37 L 118.07 -11.37 Q 118.07 -10.42 117.77 -9.62 Q 117.48 -8.83 117 -8.28 Q 116.51 -7.73 115.82 -7.31 Q 115.12 -6.88 114.38 -6.64 Q 113.64 -6.39 112.76 -6.23 Q 111.88 -6.06 111.12 -6.01 Q 110.36 -5.95 109.53 -5.95 L 109.53 -5.95 Q 109.63 -4.37 110.52 -3.38 Q 111.42 -2.4 113.22 -2.4 L 113.22 -2.4 Q 115.15 -2.4 117 -3.72 L 117 -3.72 L 118.14 -1.29 Q 117.54 -0.76 116.11 -0.18 Q 114.68 0.4 112.85 0.4 L 112.85 0.4 Q 110.98 0.4 109.6 -0.15 Q 108.22 -0.7 107.4 -1.74 Q 106.57 -2.77 106.17 -4.13 Q 105.78 -5.49 105.78 -7.21 Z M 109.41 -8.47 L 109.41 -8.47 Q 110.36 -8.48 111.2 -8.61 Q 112.05 -8.73 112.9 -9.02 Q 113.76 -9.32 114.27 -9.9 Q 114.77 -10.49 114.77 -11.31 Q 114.77 -12.13 114.29 -12.56 Q 113.8 -12.99 112.97 -12.99 L 112.97 -12.99 Q 111.83 -12.99 111.01 -12.31 Q 110.2 -11.63 109.83 -10.64 Q 109.45 -9.65 109.41 -8.47 Z M 120.5 -0.54 L 120.5 -0.54 L 120.5 -4.72 L 123.19 -4.92 L 123.19 -3.49 Q 123.19 -3.06 123.34 -2.83 Q 123.49 -2.61 123.9 -2.46 L 123.9 -2.46 Q 124.75 -2.15 125.87 -2.15 L 125.87 -2.15 Q 128.23 -2.15 128.23 -3.98 L 128.23 -3.98 Q 128.23 -4.38 128.09 -4.69 Q 127.95 -5 127.71 -5.2 Q 127.47 -5.41 127.13 -5.56 Q 126.78 -5.71 126.37 -5.84 Q 125.96 -5.96 125.49 -6.08 L 125.49 -6.08 Q 125.36 -6.11 125.3 -6.12 L 125.3 -6.12 Q 124.72 -6.27 124.34 -6.39 Q 123.96 -6.5 123.41 -6.71 Q 122.87 -6.91 122.52 -7.14 Q 122.17 -7.37 121.78 -7.72 Q 121.39 -8.07 121.16 -8.49 Q 120.94 -8.91 120.79 -9.49 Q 120.64 -10.08 120.64 -10.77 L 120.64 -10.77 Q 120.64 -11.91 121.11 -12.82 Q 121.57 -13.74 122.37 -14.33 Q 123.16 -14.91 124.21 -15.23 Q 125.26 -15.54 126.45 -15.54 L 126.45 -15.54 Q 128.96 -15.54 131.43 -14.34 L 131.43 -14.34 L 131.43 -10.74 L 128.72 -10.53 L 128.72 -11.79 Q 128.72 -12.23 128.58 -12.44 Q 128.44 -12.66 128.03 -12.8 L 128.03 -12.8 Q 127.25 -13.08 126.28 -13.08 L 126.28 -13.08 Q 125.27 -13.08 124.66 -12.62 Q 124.04 -12.16 124.04 -11.28 L 124.04 -11.28 Q 124.04 -10.88 124.22 -10.56 Q 124.39 -10.24 124.62 -10.03 Q 124.85 -9.83 125.3 -9.63 Q 125.74 -9.43 126.04 -9.35 Q 126.33 -9.26 126.88 -9.1 L 126.88 -9.1 Q 127.53 -8.91 127.9 -8.8 Q 128.28 -8.69 128.87 -8.45 Q 129.46 -8.22 129.81 -8 Q 130.17 -7.78 130.59 -7.42 Q 131.02 -7.06 131.25 -6.65 Q 131.48 -6.24 131.65 -5.66 Q 131.81 -5.08 131.81 -4.41 L 131.81 -4.41 Q 131.81 -2.15 130.17 -0.88 Q 128.53 0.4 126.02 0.4 L 126.02 0.4 Q 124.5 0.4 122.94 0.15 Q 121.39 -0.09 120.5 -0.54 Z M 135.1 -12.57 L 132.98 -12.57 L 133.27 -14.77 Q 134.02 -14.82 134.59 -15.12 Q 135.16 -15.42 135.56 -15.97 Q 135.97 -16.51 136.21 -17 Q 136.45 -17.49 136.73 -18.27 L 136.73 -18.27 L 138.68 -18.27 L 138.68 -15.09 L 142.66 -15.09 L 142.37 -12.57 L 138.68 -12.57 L 138.68 -4.67 Q 138.68 -3.37 139.16 -2.84 Q 139.64 -2.31 140.63 -2.31 L 140.63 -2.31 Q 141.62 -2.31 142.66 -2.94 L 142.66 -2.94 L 143.57 -0.63 Q 142.9 -0.16 141.86 0.13 Q 140.82 0.42 139.76 0.42 L 139.76 0.42 Q 138.43 0.42 137.5 0.08 Q 136.57 -0.26 136.11 -0.69 Q 135.64 -1.11 135.4 -1.91 Q 135.16 -2.71 135.13 -3.19 Q 135.1 -3.66 135.1 -4.54 L 135.1 -4.54 L 135.1 -4.56 L 135.1 -12.57 Z M 151.85 0 L 144.71 0 L 144.71 -2.29 L 145.69 -2.37 Q 146.15 -2.42 146.36 -2.62 Q 146.57 -2.83 146.57 -3.33 L 146.57 -3.33 L 146.57 -11.67 Q 146.57 -12.17 146.4 -12.36 Q 146.24 -12.54 145.81 -12.54 L 145.81 -12.54 L 144.77 -12.6 L 144.77 -15.09 L 150.13 -15.09 L 150.13 -2.49 L 151.85 -2.4 L 151.85 0 Z M 145.72 -19.26 L 145.72 -19.26 Q 145.72 -20.23 146.36 -20.87 Q 147 -21.5 148.04 -21.5 L 148.04 -21.5 Q 149.02 -21.5 149.67 -20.86 Q 150.32 -20.21 150.32 -19.26 Q 150.32 -18.31 149.67 -17.69 Q 149.02 -17.07 148.01 -17.07 L 148.01 -17.07 Q 146.98 -17.07 146.35 -17.69 Q 145.72 -18.31 145.72 -19.26 Z M 154.66 -12.6 L 153.4 -12.69 L 153.4 -15.09 L 158.47 -15.09 L 158.47 -13.14 Q 159.26 -14.27 160.55 -14.9 Q 161.85 -15.54 163.33 -15.54 L 163.33 -15.54 Q 165.63 -15.54 166.87 -14.24 Q 168.11 -12.93 168.11 -10.33 L 168.11 -10.33 L 168.11 -2.49 L 169.82 -2.4 L 169.82 0 L 162.67 0 L 162.67 -2.29 L 163.67 -2.37 Q 164.12 -2.42 164.33 -2.62 Q 164.53 -2.83 164.53 -3.35 L 164.53 -3.35 L 164.53 -9.54 Q 164.53 -11.16 164.02 -11.97 Q 163.51 -12.77 162.07 -12.77 L 162.07 -12.77 Q 160.65 -12.77 159.81 -11.88 Q 158.98 -10.99 158.98 -9.76 L 158.98 -9.76 L 158.98 -2.49 L 160.69 -2.4 L 160.69 0 L 153.56 0 L 153.56 -2.29 L 154.54 -2.37 Q 155.01 -2.42 155.21 -2.62 Q 155.42 -2.83 155.42 -3.35 L 155.42 -3.35 L 155.42 -11.67 Q 155.42 -12.16 155.24 -12.36 Q 155.07 -12.57 154.66 -12.6 L 154.66 -12.6 Z M 171.64 -7.56 L 171.64 -7.56 Q 171.64 -9.55 172.21 -11.09 Q 172.79 -12.63 173.84 -13.59 Q 174.89 -14.56 176.3 -15.05 Q 177.71 -15.54 179.43 -15.54 L 179.43 -15.54 Q 180.6 -15.54 182.17 -15.25 Q 183.74 -14.96 184.98 -14.43 L 184.98 -14.43 L 184.98 -3.3 Q 184.98 -0.75 184.92 -0.03 L 184.92 -0.03 Q 184.64 3.3 183 4.86 Q 181.35 6.42 177.99 6.42 L 177.99 6.42 Q 176.48 6.42 174.87 6.15 Q 173.26 5.89 172.35 5.43 L 172.35 5.43 L 172.35 1.26 L 175.2 1.03 L 175.2 2.46 Q 175.2 2.9 175.34 3.15 Q 175.49 3.4 175.88 3.54 L 175.88 3.54 Q 176.7 3.84 178.02 3.84 L 178.02 3.84 Q 179.02 3.84 179.72 3.52 Q 180.42 3.19 180.8 2.57 Q 181.17 1.95 181.33 1.19 Q 181.49 0.44 181.49 -0.57 L 181.49 -0.57 L 181.49 -2.23 Q 180.06 -0.54 177.51 -0.54 L 177.51 -0.54 Q 176.24 -0.54 175.22 -0.94 Q 174.2 -1.35 173.54 -2.02 Q 172.88 -2.7 172.44 -3.62 Q 172 -4.54 171.82 -5.52 Q 171.64 -6.49 171.64 -7.56 Z M 175.33 -7.92 L 175.33 -7.92 Q 175.33 -7.22 175.38 -6.64 Q 175.43 -6.06 175.63 -5.38 Q 175.83 -4.7 176.15 -4.25 Q 176.47 -3.79 177.06 -3.49 Q 177.64 -3.18 178.45 -3.18 L 178.45 -3.18 Q 179.75 -3.18 180.62 -3.98 Q 181.49 -4.79 181.49 -6.12 L 181.49 -6.12 L 181.49 -12.57 Q 180.42 -12.93 179.11 -12.93 L 179.11 -12.93 Q 177.28 -12.93 176.3 -11.59 Q 175.33 -10.25 175.33 -7.92 Z M 202.43 0 L 193.92 0 L 193.92 -2.43 L 194.9 -2.52 Q 195.32 -2.56 195.55 -2.75 Q 195.78 -2.93 195.78 -3.35 L 195.78 -3.35 L 195.78 -17.31 L 194.06 -17.4 L 194.06 -19.95 L 202.28 -19.95 Q 206.69 -19.95 209.17 -17.61 Q 211.64 -15.26 211.64 -10.68 L 211.64 -10.68 Q 211.64 -8.39 211.14 -6.56 Q 210.64 -4.72 209.79 -3.51 Q 208.95 -2.3 207.76 -1.5 Q 206.57 -0.7 205.25 -0.35 Q 203.92 0 202.43 0 L 202.43 0 Z M 199.42 -17.04 L 199.42 -2.89 L 202.49 -2.89 Q 205.05 -2.89 206.5 -4.74 Q 207.95 -6.59 207.95 -10.14 L 207.95 -10.14 Q 207.95 -12.1 207.5 -13.48 Q 207.06 -14.87 206.23 -15.62 Q 205.4 -16.38 204.4 -16.71 Q 203.39 -17.04 202.1 -17.04 L 202.1 -17.04 L 199.42 -17.04 Z M 213.94 -7.21 L 213.94 -7.21 Q 213.94 -8.89 214.42 -10.39 Q 214.89 -11.88 215.79 -13.04 Q 216.69 -14.19 218.13 -14.87 Q 219.57 -15.54 221.35 -15.54 L 221.35 -15.54 Q 223.59 -15.54 224.91 -14.44 Q 226.23 -13.34 226.23 -11.37 L 226.23 -11.37 Q 226.23 -10.42 225.94 -9.62 Q 225.64 -8.83 225.16 -8.28 Q 224.68 -7.73 223.98 -7.31 Q 223.29 -6.88 222.55 -6.64 Q 221.81 -6.39 220.93 -6.23 Q 220.05 -6.06 219.29 -6.01 Q 218.53 -5.95 217.69 -5.95 L 217.69 -5.95 Q 217.79 -4.37 218.69 -3.38 Q 219.58 -2.4 221.38 -2.4 L 221.38 -2.4 Q 223.32 -2.4 225.16 -3.72 L 225.16 -3.72 L 226.3 -1.29 Q 225.7 -0.76 224.27 -0.18 Q 222.85 0.4 221.02 0.4 L 221.02 0.4 Q 219.14 0.4 217.76 -0.15 Q 216.39 -0.7 215.56 -1.74 Q 214.73 -2.77 214.34 -4.13 Q 213.94 -5.49 213.94 -7.21 Z M 217.57 -8.47 L 217.57 -8.47 Q 218.53 -8.48 219.37 -8.61 Q 220.21 -8.73 221.07 -9.02 Q 221.92 -9.32 222.43 -9.9 Q 222.93 -10.49 222.93 -11.31 Q 222.93 -12.13 222.45 -12.56 Q 221.97 -12.99 221.13 -12.99 L 221.13 -12.99 Q 219.99 -12.99 219.18 -12.31 Q 218.36 -11.63 217.99 -10.64 Q 217.62 -9.65 217.57 -8.47 Z M 230.04 -12.57 L 227.92 -12.57 L 228.21 -14.77 Q 228.96 -14.82 229.53 -15.12 Q 230.1 -15.42 230.5 -15.97 Q 230.9 -16.51 231.15 -17 Q 231.39 -17.49 231.67 -18.27 L 231.67 -18.27 L 233.61 -18.27 L 233.61 -15.09 L 237.6 -15.09 L 237.3 -12.57 L 233.61 -12.57 L 233.61 -4.67 Q 233.61 -3.37 234.1 -2.84 Q 234.58 -2.31 235.56 -2.31 L 235.56 -2.31 Q 236.56 -2.31 237.6 -2.94 L 237.6 -2.94 L 238.51 -0.63 Q 237.83 -0.16 236.79 0.13 Q 235.75 0.42 234.7 0.42 L 234.7 0.42 Q 233.36 0.42 232.43 0.08 Q 231.5 -0.26 231.04 -0.69 Q 230.58 -1.11 230.34 -1.91 Q 230.1 -2.71 230.07 -3.19 Q 230.04 -3.66 230.04 -4.54 L 230.04 -4.54 L 230.04 -4.56 L 230.04 -12.57 Z M 239.77 -7.21 L 239.77 -7.21 Q 239.77 -8.89 240.24 -10.39 Q 240.72 -11.88 241.62 -13.04 Q 242.52 -14.19 243.96 -14.87 Q 245.39 -15.54 247.18 -15.54 L 247.18 -15.54 Q 249.42 -15.54 250.74 -14.44 Q 252.06 -13.34 252.06 -11.37 L 252.06 -11.37 Q 252.06 -10.42 251.76 -9.62 Q 251.47 -8.83 250.99 -8.28 Q 250.5 -7.73 249.81 -7.31 Q 249.11 -6.88 248.37 -6.64 Q 247.63 -6.39 246.75 -6.23 Q 245.87 -6.06 245.11 -6.01 Q 244.35 -5.95 243.52 -5.95 L 243.52 -5.95 Q 243.62 -4.37 244.51 -3.38 Q 245.41 -2.4 247.21 -2.4 L 247.21 -2.4 Q 249.14 -2.4 250.99 -3.72 L 250.99 -3.72 L 252.13 -1.29 Q 251.53 -0.76 250.1 -0.18 Q 248.67 0.4 246.84 0.4 L 246.84 0.4 Q 244.97 0.4 243.59 -0.15 Q 242.21 -0.7 241.38 -1.74 Q 240.56 -2.77 240.16 -4.13 Q 239.77 -5.49 239.77 -7.21 Z M 243.4 -8.47 L 243.4 -8.47 Q 244.35 -8.48 245.19 -8.61 Q 246.04 -8.73 246.89 -9.02 Q 247.75 -9.32 248.25 -9.9 Q 248.76 -10.49 248.76 -11.31 Q 248.76 -12.13 248.28 -12.56 Q 247.79 -12.99 246.96 -12.99 L 246.96 -12.99 Q 245.82 -12.99 245 -12.31 Q 244.19 -11.63 243.82 -10.64 Q 243.44 -9.65 243.4 -8.47 Z M 254.17 -7.35 L 254.17 -7.35 Q 254.17 -9.11 254.58 -10.53 Q 255 -11.95 255.7 -12.88 Q 256.39 -13.8 257.33 -14.41 Q 258.27 -15.03 259.26 -15.29 Q 260.24 -15.54 261.3 -15.54 L 261.3 -15.54 Q 263.7 -15.54 265.97 -14.31 L 265.97 -14.31 L 265.97 -10.42 L 263.22 -10.2 L 263.22 -11.65 Q 263.22 -12.1 263.09 -12.31 Q 262.97 -12.52 262.59 -12.66 L 262.59 -12.66 Q 261.99 -12.85 261.42 -12.85 L 261.42 -12.85 Q 259.63 -12.85 258.71 -11.53 Q 257.78 -10.21 257.78 -7.71 L 257.78 -7.71 Q 257.78 -5.17 258.75 -3.76 Q 259.72 -2.34 261.67 -2.34 L 261.67 -2.34 Q 263.33 -2.34 265.11 -3.63 L 265.11 -3.63 L 266.4 -1.32 Q 265.44 -0.54 264.1 -0.06 Q 262.76 0.42 261.18 0.42 L 261.18 0.42 Q 257.86 0.42 256.01 -1.6 Q 254.17 -3.63 254.17 -7.35 Z M 269.99 -12.57 L 267.86 -12.57 L 268.15 -14.77 Q 268.9 -14.82 269.47 -15.12 Q 270.04 -15.42 270.45 -15.97 Q 270.85 -16.51 271.09 -17 Q 271.33 -17.49 271.61 -18.27 L 271.61 -18.27 L 273.56 -18.27 L 273.56 -15.09 L 277.54 -15.09 L 277.25 -12.57 L 273.56 -12.57 L 273.56 -4.67 Q 273.56 -3.37 274.04 -2.84 Q 274.53 -2.31 275.51 -2.31 L 275.51 -2.31 Q 276.5 -2.31 277.54 -2.94 L 277.54 -2.94 L 278.45 -0.63 Q 277.78 -0.16 276.74 0.13 Q 275.7 0.42 274.64 0.42 L 274.64 0.42 Q 273.31 0.42 272.38 0.08 Q 271.45 -0.26 270.99 -0.69 Q 270.53 -1.11 270.29 -1.91 Q 270.04 -2.71 270.01 -3.19 Q 269.99 -3.66 269.99 -4.54 L 269.99 -4.54 L 269.99 -4.56 L 269.99 -12.57 Z M 286.73 0 L 279.59 0 L 279.59 -2.29 L 280.58 -2.37 Q 281.03 -2.42 281.24 -2.62 Q 281.46 -2.83 281.46 -3.33 L 281.46 -3.33 L 281.46 -11.67 Q 281.46 -12.17 281.29 -12.36 Q 281.12 -12.54 280.69 -12.54 L 280.69 -12.54 L 279.65 -12.6 L 279.65 -15.09 L 285.01 -15.09 L 285.01 -2.49 L 286.73 -2.4 L 286.73 0 Z M 280.61 -19.26 L 280.61 -19.26 Q 280.61 -20.23 281.24 -20.87 Q 281.88 -21.5 282.92 -21.5 L 282.92 -21.5 Q 283.9 -21.5 284.55 -20.86 Q 285.21 -20.21 285.21 -19.26 Q 285.21 -18.31 284.55 -17.69 Q 283.9 -17.07 282.89 -17.07 L 282.89 -17.07 Q 281.87 -17.07 281.24 -17.69 Q 280.61 -18.31 280.61 -19.26 Z M 288.47 -7.56 L 288.47 -7.56 Q 288.47 -9.36 288.93 -10.78 Q 289.38 -12.2 290.09 -13.07 Q 290.8 -13.95 291.77 -14.52 Q 292.73 -15.1 293.67 -15.32 Q 294.61 -15.54 295.61 -15.54 L 295.61 -15.54 Q 296.16 -15.54 296.68 -15.49 Q 297.2 -15.44 297.9 -15.24 Q 298.59 -15.04 299.18 -14.73 Q 299.77 -14.41 300.36 -13.84 Q 300.95 -13.26 301.37 -12.48 Q 301.79 -11.7 302.04 -10.54 Q 302.3 -9.38 302.3 -7.95 L 302.3 -7.95 Q 302.3 -5.86 301.74 -4.23 Q 301.17 -2.59 300.18 -1.58 Q 299.19 -0.57 297.91 -0.06 Q 296.63 0.45 295.12 0.45 L 295.12 0.45 Q 292.02 0.45 290.24 -1.57 Q 288.47 -3.59 288.47 -7.56 Z M 292.09 -7.98 L 292.09 -7.98 Q 292.09 -7.21 292.13 -6.58 Q 292.18 -5.95 292.29 -5.25 Q 292.41 -4.56 292.65 -4.04 Q 292.88 -3.52 293.23 -3.08 Q 293.58 -2.65 294.13 -2.42 Q 294.67 -2.2 295.37 -2.2 L 295.37 -2.2 Q 297.06 -2.2 297.85 -3.6 Q 298.64 -5 298.64 -7.47 L 298.64 -7.47 Q 298.64 -10.14 297.9 -11.52 Q 297.16 -12.91 295.43 -12.91 L 295.43 -12.91 Q 293.73 -12.91 292.91 -11.59 Q 292.09 -10.27 292.09 -7.98 Z M 305.38 -12.6 L 304.12 -12.69 L 304.12 -15.09 L 309.18 -15.09 L 309.18 -13.14 Q 309.98 -14.27 311.27 -14.9 Q 312.57 -15.54 314.05 -15.54 L 314.05 -15.54 Q 316.35 -15.54 317.59 -14.24 Q 318.82 -12.93 318.82 -10.33 L 318.82 -10.33 L 318.82 -2.49 L 320.54 -2.4 L 320.54 0 L 313.39 0 L 313.39 -2.29 L 314.38 -2.37 Q 314.84 -2.42 315.04 -2.62 Q 315.25 -2.83 315.25 -3.35 L 315.25 -3.35 L 315.25 -9.54 Q 315.25 -11.16 314.74 -11.97 Q 314.22 -12.77 312.79 -12.77 L 312.79 -12.77 Q 311.37 -12.77 310.53 -11.88 Q 309.7 -10.99 309.7 -9.76 L 309.7 -9.76 L 309.7 -2.49 L 311.41 -2.4 L 311.41 0 L 304.28 0 L 304.28 -2.29 L 305.26 -2.37 Q 305.73 -2.42 305.93 -2.62 Q 306.14 -2.83 306.14 -3.35 L 306.14 -3.35 L 306.14 -11.67 Q 306.14 -12.16 305.96 -12.36 Q 305.79 -12.57 305.38 -12.6 L 305.38 -12.6 Z" stroke-linecap="round" />
</g>
<g transform="matrix(1.57 0 0 1.57 512 823.55)"  >
<path style="stroke: none; stroke-width: 1; stroke-dasharray: none; stroke-linecap: butt; stroke-dashoffset: 0; stroke-linejoin: miter; stroke-miterlimit: 4; fill: rgb(63,63,71); fill-rule: nonzero; opacity: ;"  transform=" translate(-140.3, 7.75)" d="M 2.07 -8.13 L 2.07 -8.13 Q 2.07 -11.46 3.1 -14.99 Q 4.13 -18.53 6.04 -21.87 L 6.04 -21.87 L 8.88 -20.55 Q 5.61 -14.09 5.61 -8.28 L 5.61 -8.28 Q 5.61 -5.21 6.42 -2.29 Q 7.24 0.64 8.85 3.93 L 8.85 3.93 L 6.04 5.27 Q 2.07 -1.46 2.07 -8.13 Z M 11.12 -6.9 L 11.12 -6.9 Q 11.12 -10.97 13.1 -13.26 Q 15.09 -15.54 19.04 -15.54 L 19.04 -15.54 Q 19.98 -15.54 21.45 -15.29 Q 22.92 -15.03 24.38 -14.49 L 24.38 -14.49 L 24.38 -3.33 Q 24.38 -2.84 24.53 -2.67 Q 24.68 -2.49 25.12 -2.46 L 25.12 -2.46 L 26.09 -2.4 L 26.09 0 L 21.31 0 L 21.31 -1.74 L 21.23 -1.77 Q 20.54 -0.76 19.45 -0.18 Q 18.35 0.4 17.12 0.4 L 17.12 0.4 Q 14.08 0.4 12.6 -1.56 Q 11.12 -3.52 11.12 -6.9 Z M 14.78 -7.02 L 14.78 -7.02 Q 14.78 -2.15 17.9 -2.15 L 17.9 -2.15 Q 19.23 -2.15 20.07 -2.95 Q 20.9 -3.75 20.9 -4.78 L 20.9 -4.78 L 20.9 -12.54 Q 20.02 -12.93 18.59 -12.93 L 18.59 -12.93 Q 17.55 -12.93 16.79 -12.47 Q 16.04 -12.01 15.61 -11.18 Q 15.18 -10.34 14.98 -9.32 Q 14.78 -8.29 14.78 -7.02 Z M 28.99 -12.6 L 27.73 -12.69 L 27.73 -15.09 L 32.8 -15.09 L 32.8 -13.14 Q 33.59 -14.27 34.89 -14.9 Q 36.18 -15.54 37.66 -15.54 L 37.66 -15.54 Q 39.96 -15.54 41.2 -14.24 Q 42.44 -12.93 42.44 -10.33 L 42.44 -10.33 L 42.44 -2.49 L 44.15 -2.4 L 44.15 0 L 37 0 L 37 -2.29 L 38 -2.37 Q 38.45 -2.42 38.66 -2.62 Q 38.86 -2.83 38.86 -3.35 L 38.86 -3.35 L 38.86 -9.54 Q 38.86 -11.16 38.35 -11.97 Q 37.84 -12.77 36.4 -12.77 L 36.4 -12.77 Q 34.98 -12.77 34.15 -11.88 Q 33.31 -10.99 33.31 -9.76 L 33.31 -9.76 L 33.31 -2.49 L 35.02 -2.4 L 35.02 0 L 27.89 0 L 27.89 -2.29 L 28.87 -2.37 Q 29.34 -2.42 29.55 -2.62 Q 29.75 -2.83 29.75 -3.35 L 29.75 -3.35 L 29.75 -11.67 Q 29.75 -12.16 29.58 -12.36 Q 29.4 -12.57 28.99 -12.6 L 28.99 -12.6 Z M 46.11 -6.96 L 46.11 -6.96 Q 46.11 -10.87 48.05 -13.21 Q 49.98 -15.54 53.44 -15.54 L 53.44 -15.54 Q 54.67 -15.54 55.9 -15.18 L 55.9 -15.18 L 55.9 -18.21 Q 55.9 -18.57 55.7 -18.74 Q 55.5 -18.9 55.11 -18.93 L 55.11 -18.93 L 53.82 -19.01 L 53.82 -21.39 L 59.4 -21.39 L 59.4 -3.15 Q 59.41 -2.77 59.59 -2.61 Q 59.77 -2.46 60.15 -2.46 L 60.15 -2.46 L 61.2 -2.4 L 61.2 0 L 56.34 0 L 56.34 -1.77 L 56.25 -1.8 Q 55.58 -0.7 54.51 -0.15 Q 53.45 0.4 52.18 0.4 L 52.18 0.4 Q 50.82 0.4 49.75 -0.01 Q 48.69 -0.42 48.02 -1.11 Q 47.34 -1.79 46.9 -2.75 Q 46.46 -3.72 46.29 -4.75 Q 46.11 -5.77 46.11 -6.96 Z M 49.8 -7.29 L 49.8 -7.29 Q 49.8 -2.26 53.04 -2.26 L 53.04 -2.26 Q 54.29 -2.26 55.09 -2.96 Q 55.9 -3.66 55.9 -4.67 L 55.9 -4.67 L 55.9 -12.45 Q 54.79 -12.93 53.61 -12.93 L 53.61 -12.93 Q 52.59 -12.93 51.83 -12.47 Q 51.06 -12.01 50.63 -11.21 Q 50.2 -10.4 50 -9.43 Q 49.8 -8.45 49.8 -7.29 Z M 69.71 -12.57 L 68.75 -12.63 L 68.75 -15.09 L 74.03 -15.09 L 74.03 -6.47 Q 74.03 -4.89 74.48 -4.08 Q 74.93 -3.27 76.25 -3.27 L 76.25 -3.27 Q 77.74 -3.27 78.6 -4.14 Q 79.45 -5.01 79.45 -6.24 L 79.45 -6.24 L 79.45 -11.67 Q 79.45 -12.17 79.29 -12.37 Q 79.13 -12.57 78.71 -12.57 L 78.71 -12.57 L 77.75 -12.63 L 77.75 -15.09 L 83.03 -15.09 L 83.03 -0.57 Q 83.03 3.06 81.27 4.74 Q 79.51 6.42 76.07 6.42 L 76.07 6.42 Q 74.56 6.42 72.95 6.15 Q 71.34 5.89 70.43 5.43 L 70.43 5.43 L 70.43 1.26 L 73.29 1.03 L 73.29 2.46 Q 73.29 2.9 73.43 3.15 Q 73.58 3.4 73.97 3.54 L 73.97 3.54 Q 74.79 3.84 76.1 3.84 L 76.1 3.84 Q 79.97 3.84 79.97 -0.57 L 79.97 -0.57 L 79.97 -2.86 Q 79.17 -1.74 77.89 -1.13 Q 76.6 -0.51 75.1 -0.51 L 75.1 -0.51 Q 70.46 -0.51 70.46 -5.7 L 70.46 -5.7 L 70.46 -11.73 Q 70.46 -12.19 70.28 -12.36 Q 70.11 -12.54 69.71 -12.57 L 69.71 -12.57 Z M 86.12 -7.56 L 86.12 -7.56 Q 86.12 -9.36 86.57 -10.78 Q 87.03 -12.2 87.74 -13.07 Q 88.45 -13.95 89.41 -14.52 Q 90.38 -15.1 91.32 -15.32 Q 92.26 -15.54 93.25 -15.54 L 93.25 -15.54 Q 93.81 -15.54 94.33 -15.49 Q 94.85 -15.44 95.54 -15.24 Q 96.24 -15.04 96.83 -14.73 Q 97.41 -14.41 98.01 -13.84 Q 98.6 -13.26 99.02 -12.48 Q 99.43 -11.7 99.69 -10.54 Q 99.95 -9.38 99.95 -7.95 L 99.95 -7.95 Q 99.95 -5.86 99.38 -4.23 Q 98.82 -2.59 97.83 -1.58 Q 96.84 -0.57 95.56 -0.06 Q 94.28 0.45 92.77 0.45 L 92.77 0.45 Q 89.66 0.45 87.89 -1.57 Q 86.12 -3.59 86.12 -7.56 Z M 89.74 -7.98 L 89.74 -7.98 Q 89.74 -7.21 89.78 -6.58 Q 89.82 -5.95 89.94 -5.25 Q 90.06 -4.56 90.29 -4.04 Q 90.53 -3.52 90.88 -3.08 Q 91.23 -2.65 91.77 -2.42 Q 92.31 -2.2 93.02 -2.2 L 93.02 -2.2 Q 94.7 -2.2 95.49 -3.6 Q 96.28 -5 96.28 -7.47 L 96.28 -7.47 Q 96.28 -10.14 95.54 -11.52 Q 94.8 -12.91 93.08 -12.91 L 93.08 -12.91 Q 91.38 -12.91 90.56 -11.59 Q 89.74 -10.27 89.74 -7.98 Z M 102.28 -12.57 L 101.31 -12.63 L 101.31 -15.09 L 106.6 -15.09 L 106.6 -5.58 Q 106.6 -4 107.04 -3.19 Q 107.49 -2.37 108.81 -2.37 L 108.81 -2.37 Q 110.3 -2.37 111.16 -3.24 Q 112.02 -4.12 112.02 -5.35 L 112.02 -5.35 L 112.02 -11.67 Q 112.02 -12.17 111.86 -12.36 Q 111.69 -12.54 111.27 -12.57 L 111.27 -12.57 L 110.32 -12.63 L 110.32 -15.09 L 115.59 -15.09 L 115.59 -3.33 Q 115.59 -2.84 115.74 -2.67 Q 115.9 -2.5 116.34 -2.46 L 116.34 -2.46 L 117.39 -2.37 L 117.39 0 L 112.53 0 L 112.53 -1.95 Q 111.74 -0.83 110.45 -0.22 Q 109.16 0.4 107.67 0.4 L 107.67 0.4 Q 103.02 0.4 103.02 -4.8 L 103.02 -4.8 L 103.02 -11.73 Q 103.02 -12.19 102.85 -12.36 Q 102.67 -12.54 102.28 -12.57 L 102.28 -12.57 Z M 120.32 -12.57 L 119.06 -12.66 L 119.06 -15.09 L 124.13 -15.09 L 124.13 -12.85 Q 124.67 -14.02 125.82 -14.78 Q 126.96 -15.54 128.39 -15.54 L 128.39 -15.54 Q 129.92 -15.54 131.28 -14.88 L 131.28 -14.88 L 131.28 -10.42 L 128.48 -10.2 L 128.48 -11.59 Q 128.48 -12.19 128.19 -12.33 L 128.19 -12.33 Q 127.85 -12.48 127.38 -12.48 L 127.38 -12.48 Q 126.17 -12.48 125.41 -11.62 Q 124.64 -10.77 124.64 -9.45 L 124.64 -9.45 L 124.64 -2.49 L 127.25 -2.37 L 127.25 0 L 119.22 0 L 119.22 -2.29 L 120.21 -2.37 Q 120.67 -2.42 120.88 -2.62 Q 121.08 -2.83 121.08 -3.35 L 121.08 -3.35 L 121.08 -11.67 Q 121.08 -12.16 120.92 -12.35 Q 120.75 -12.54 120.32 -12.57 L 120.32 -12.57 Z M 139.07 -7.35 L 139.07 -7.35 Q 139.07 -9.11 139.49 -10.53 Q 139.91 -11.95 140.6 -12.88 Q 141.3 -13.8 142.24 -14.41 Q 143.17 -15.03 144.16 -15.29 Q 145.15 -15.54 146.21 -15.54 L 146.21 -15.54 Q 148.61 -15.54 150.88 -14.31 L 150.88 -14.31 L 150.88 -10.42 L 148.13 -10.2 L 148.13 -11.65 Q 148.13 -12.1 148 -12.31 Q 147.88 -12.52 147.5 -12.66 L 147.5 -12.66 Q 146.89 -12.85 146.32 -12.85 L 146.32 -12.85 Q 144.54 -12.85 143.61 -11.53 Q 142.69 -10.21 142.69 -7.71 L 142.69 -7.71 Q 142.69 -5.17 143.66 -3.76 Q 144.62 -2.34 146.57 -2.34 L 146.57 -2.34 Q 148.24 -2.34 150.01 -3.63 L 150.01 -3.63 L 151.3 -1.32 Q 150.35 -0.54 149.01 -0.06 Q 147.67 0.42 146.09 0.42 L 146.09 0.42 Q 142.76 0.42 140.92 -1.6 Q 139.07 -3.63 139.07 -7.35 Z M 154.29 -12.57 L 153.03 -12.66 L 153.03 -15.09 L 158.1 -15.09 L 158.1 -12.85 Q 158.64 -14.02 159.79 -14.78 Q 160.93 -15.54 162.36 -15.54 L 162.36 -15.54 Q 163.89 -15.54 165.25 -14.88 L 165.25 -14.88 L 165.25 -10.42 L 162.45 -10.2 L 162.45 -11.59 Q 162.45 -12.19 162.16 -12.33 L 162.16 -12.33 Q 161.82 -12.48 161.35 -12.48 L 161.35 -12.48 Q 160.14 -12.48 159.38 -11.62 Q 158.61 -10.77 158.61 -9.45 L 158.61 -9.45 L 158.61 -2.49 L 161.22 -2.37 L 161.22 0 L 153.19 0 L 153.19 -2.29 L 154.17 -2.37 Q 154.64 -2.42 154.85 -2.62 Q 155.05 -2.83 155.05 -3.35 L 155.05 -3.35 L 155.05 -11.67 Q 155.05 -12.16 154.89 -12.35 Q 154.72 -12.54 154.29 -12.57 L 154.29 -12.57 Z M 167.17 -7.21 L 167.17 -7.21 Q 167.17 -8.89 167.64 -10.39 Q 168.12 -11.88 169.02 -13.04 Q 169.92 -14.19 171.36 -14.87 Q 172.79 -15.54 174.58 -15.54 L 174.58 -15.54 Q 176.82 -15.54 178.14 -14.44 Q 179.46 -13.34 179.46 -11.37 L 179.46 -11.37 Q 179.46 -10.42 179.17 -9.62 Q 178.87 -8.83 178.39 -8.28 Q 177.91 -7.73 177.21 -7.31 Q 176.51 -6.88 175.77 -6.64 Q 175.03 -6.39 174.16 -6.23 Q 173.28 -6.06 172.51 -6.01 Q 171.75 -5.95 170.92 -5.95 L 170.92 -5.95 Q 171.02 -4.37 171.91 -3.38 Q 172.81 -2.4 174.61 -2.4 L 174.61 -2.4 Q 176.54 -2.4 178.39 -3.72 L 178.39 -3.72 L 179.53 -1.29 Q 178.93 -0.76 177.5 -0.18 Q 176.07 0.4 174.24 0.4 L 174.24 0.4 Q 172.37 0.4 170.99 -0.15 Q 169.61 -0.7 168.79 -1.74 Q 167.96 -2.77 167.56 -4.13 Q 167.17 -5.49 167.17 -7.21 Z M 170.8 -8.47 L 170.8 -8.47 Q 171.75 -8.48 172.6 -8.61 Q 173.44 -8.73 174.29 -9.02 Q 175.15 -9.32 175.66 -9.9 Q 176.16 -10.49 176.16 -11.31 Q 176.16 -12.13 175.68 -12.56 Q 175.2 -12.99 174.36 -12.99 L 174.36 -12.99 Q 173.22 -12.99 172.4 -12.31 Q 171.59 -11.63 171.22 -10.64 Q 170.84 -9.65 170.8 -8.47 Z M 181.77 -6.9 L 181.77 -6.9 Q 181.77 -10.97 183.76 -13.26 Q 185.74 -15.54 189.7 -15.54 L 189.7 -15.54 Q 190.63 -15.54 192.11 -15.29 Q 193.58 -15.03 195.03 -14.49 L 195.03 -14.49 L 195.03 -3.33 Q 195.03 -2.84 195.18 -2.67 Q 195.34 -2.49 195.78 -2.46 L 195.78 -2.46 L 196.74 -2.4 L 196.74 0 L 191.97 0 L 191.97 -1.74 L 191.88 -1.77 Q 191.19 -0.76 190.1 -0.18 Q 189.01 0.4 187.78 0.4 L 187.78 0.4 Q 184.73 0.4 183.25 -1.56 Q 181.77 -3.52 181.77 -6.9 Z M 185.43 -7.02 L 185.43 -7.02 Q 185.43 -2.15 188.55 -2.15 L 188.55 -2.15 Q 189.89 -2.15 190.72 -2.95 Q 191.56 -3.75 191.56 -4.78 L 191.56 -4.78 L 191.56 -12.54 Q 190.68 -12.93 189.24 -12.93 L 189.24 -12.93 Q 188.2 -12.93 187.45 -12.47 Q 186.69 -12.01 186.26 -11.18 Q 185.83 -10.34 185.63 -9.32 Q 185.43 -8.29 185.43 -7.02 Z M 199.67 -12.57 L 197.55 -12.57 L 197.84 -14.77 Q 198.59 -14.82 199.16 -15.12 Q 199.73 -15.42 200.13 -15.97 Q 200.54 -16.51 200.78 -17 Q 201.02 -17.49 201.3 -18.27 L 201.3 -18.27 L 203.25 -18.27 L 203.25 -15.09 L 207.23 -15.09 L 206.94 -12.57 L 203.25 -12.57 L 203.25 -4.67 Q 203.25 -3.37 203.73 -2.84 Q 204.21 -2.31 205.2 -2.31 L 205.2 -2.31 Q 206.19 -2.31 207.23 -2.94 L 207.23 -2.94 L 208.14 -0.63 Q 207.47 -0.16 206.43 0.13 Q 205.39 0.42 204.33 0.42 L 204.33 0.42 Q 203 0.42 202.07 0.08 Q 201.14 -0.26 200.68 -0.69 Q 200.21 -1.11 199.97 -1.91 Q 199.73 -2.71 199.7 -3.19 Q 199.67 -3.66 199.67 -4.54 L 199.67 -4.54 L 199.67 -4.56 L 199.67 -12.57 Z M 216.42 0 L 209.28 0 L 209.28 -2.29 L 210.26 -2.37 Q 210.72 -2.42 210.93 -2.62 Q 211.14 -2.83 211.14 -3.33 L 211.14 -3.33 L 211.14 -11.67 Q 211.14 -12.17 210.97 -12.36 Q 210.81 -12.54 210.38 -12.54 L 210.38 -12.54 L 209.34 -12.6 L 209.34 -15.09 L 214.7 -15.09 L 214.7 -2.49 L 216.42 -2.4 L 216.42 0 Z M 210.29 -19.26 L 210.29 -19.26 Q 210.29 -20.23 210.93 -20.87 Q 211.57 -21.5 212.61 -21.5 L 212.61 -21.5 Q 213.59 -21.5 214.24 -20.86 Q 214.89 -20.21 214.89 -19.26 Q 214.89 -18.31 214.24 -17.69 Q 213.59 -17.07 212.58 -17.07 L 212.58 -17.07 Q 211.55 -17.07 210.92 -17.69 Q 210.29 -18.31 210.29 -19.26 Z M 217.73 -12.69 L 216.86 -12.74 L 216.86 -15.09 L 223.92 -15.09 L 223.92 -12.69 L 222.08 -12.6 L 225.18 -2.72 L 225.23 -2.72 L 228.24 -12.6 L 226.67 -12.69 L 226.67 -15.09 L 233 -15.09 L 233 -12.74 L 232.08 -12.69 Q 231.75 -12.66 231.58 -12.52 Q 231.4 -12.38 231.27 -11.97 L 231.27 -11.97 L 227.39 0 L 222.8 0 L 218.6 -11.94 Q 218.47 -12.36 218.3 -12.52 Q 218.13 -12.67 217.73 -12.69 L 217.73 -12.69 Z M 241.42 0 L 234.29 0 L 234.29 -2.29 L 235.27 -2.37 Q 235.72 -2.42 235.94 -2.62 Q 236.15 -2.83 236.15 -3.33 L 236.15 -3.33 L 236.15 -11.67 Q 236.15 -12.17 235.98 -12.36 Q 235.81 -12.54 235.39 -12.54 L 235.39 -12.54 L 234.35 -12.6 L 234.35 -15.09 L 239.71 -15.09 L 239.71 -2.49 L 241.42 -2.4 L 241.42 0 Z M 235.3 -19.26 L 235.3 -19.26 Q 235.3 -20.23 235.94 -20.87 Q 236.57 -21.5 237.61 -21.5 L 237.61 -21.5 Q 238.59 -21.5 239.25 -20.86 Q 239.9 -20.21 239.9 -19.26 Q 239.9 -18.31 239.25 -17.69 Q 238.59 -17.07 237.58 -17.07 L 237.58 -17.07 Q 236.56 -17.07 235.93 -17.69 Q 235.3 -18.31 235.3 -19.26 Z M 244.86 -12.57 L 242.74 -12.57 L 243.03 -14.77 Q 243.78 -14.82 244.35 -15.12 Q 244.92 -15.42 245.32 -15.97 Q 245.73 -16.51 245.97 -17 Q 246.21 -17.49 246.49 -18.27 L 246.49 -18.27 L 248.44 -18.27 L 248.44 -15.09 L 252.42 -15.09 L 252.13 -12.57 L 248.44 -12.57 L 248.44 -4.67 Q 248.44 -3.37 248.92 -2.84 Q 249.4 -2.31 250.39 -2.31 L 250.39 -2.31 Q 251.38 -2.31 252.42 -2.94 L 252.42 -2.94 L 253.33 -0.63 Q 252.66 -0.16 251.62 0.13 Q 250.58 0.42 249.52 0.42 L 249.52 0.42 Q 248.19 0.42 247.26 0.08 Q 246.33 -0.26 245.87 -0.69 Q 245.41 -1.11 245.16 -1.91 Q 244.92 -2.71 244.89 -3.19 Q 244.86 -3.66 244.86 -4.54 L 244.86 -4.54 L 244.86 -4.56 L 244.86 -12.57 Z M 255.25 -12.57 L 254.28 -12.63 L 254.28 -15.09 L 259.57 -15.09 L 259.57 -6.47 Q 259.57 -4.89 260.02 -4.08 Q 260.46 -3.27 261.78 -3.27 L 261.78 -3.27 Q 263.28 -3.27 264.13 -4.14 Q 264.99 -5.01 264.99 -6.24 L 264.99 -6.24 L 264.99 -11.67 Q 264.99 -12.17 264.83 -12.37 Q 264.67 -12.57 264.24 -12.57 L 264.24 -12.57 L 263.29 -12.63 L 263.29 -15.09 L 268.56 -15.09 L 268.56 -0.57 Q 268.56 3.06 266.81 4.74 Q 265.05 6.42 261.61 6.42 L 261.61 6.42 Q 260.1 6.42 258.49 6.15 Q 256.88 5.89 255.97 5.43 L 255.97 5.43 L 255.97 1.26 L 258.82 1.03 L 258.82 2.46 Q 258.82 2.9 258.97 3.15 Q 259.12 3.4 259.51 3.54 L 259.51 3.54 Q 260.33 3.84 261.64 3.84 L 261.64 3.84 Q 265.5 3.84 265.5 -0.57 L 265.5 -0.57 L 265.5 -2.86 Q 264.71 -1.74 263.42 -1.13 Q 262.13 -0.51 260.64 -0.51 L 260.64 -0.51 Q 256 -0.51 256 -5.7 L 256 -5.7 L 256 -11.73 Q 256 -12.19 255.82 -12.36 Q 255.64 -12.54 255.25 -12.57 L 255.25 -12.57 Z M 274.56 5.21 L 271.71 3.9 Q 273.34 0.67 274.16 -2.31 Q 274.98 -5.29 274.98 -8.36 L 274.98 -8.36 Q 274.98 -11.43 274.17 -14.36 Q 273.35 -17.3 271.74 -20.58 L 271.74 -20.58 L 274.56 -21.93 Q 278.53 -15.19 278.53 -8.53 L 278.53 -8.53 Q 278.53 -5.2 277.49 -1.66 Q 276.46 1.88 274.56 5.21 L 274.56 5.21 Z" stroke-linecap="round" />
</g>
</svg>